<svg xmlns="http://www.w3.org/2000/svg" width="33" height="33" fill="none"><path fill="#E5F9F9" d="M25 .625H5A4.375 4.375 0 0 0 .625 5v20A4.375 4.375 0 0 0 5 29.375h20A4.375 4.375 0 0 0 29.375 25V5A4.375 4.375 0 0 0 25 .625Z"/><path fill="#5289CD" fill-opacity=".15" d="M25 10v13a1 1 0 0 1-1 1h-9c-1.105 0-2-.395-2-1.5v-3.7a9.921 9.921 0 0 0 2-.632l.013-.006a10.038 10.038 0 0 0 5.079-4.992A9.963 9.963 0 0 0 21 9V7h1a3 3 0 0 1 3 3Z"/><path stroke="#5289CD" stroke-width="1.25" d="M15 18.168a9.921 9.921 0 0 1-2 .632v3.7c0 1.105.895 1.5 2 1.5h9a1 1 0 0 0 1-1V10a3 3 0 0 0-3-3h-1v2m-6 9.168.013-.006m-.013.006C18.532 16.625 21 13.1 21 9m-6 9.168.013-.006M21 9c0 4.096-2.462 7.616-5.987 9.162"/><path fill="#5289CD" d="M11.625 19a.625.625 0 1 0-1.25 0h1.25Zm-2.862-1.067a.625.625 0 0 0-.526 1.134l.526-1.134ZM11 19v-.625h-.625V19H11Zm3-13.375h5v-1.25h-5v1.25ZM5.625 20.429V14h-1.25v6.429h1.25ZM20.375 7v2h1.25V7h-1.25ZM11 18.375a6.074 6.074 0 0 1-2.207-.429l-.027-.012a.083.083 0 0 0-.004-.002l.001.001-.263.567-.263.567h.001l.002.001.005.002a1.43 1.43 0 0 1 .06.027c.04.016.094.039.163.065a7.324 7.324 0 0 0 2.532.463v-1.25Zm-2.842 3.298c-.603.475-.852 1.113-.905 1.737-.05.607.082 1.215.247 1.712l1.186-.395c-.137-.413-.218-.84-.187-1.213.03-.356.157-.642.432-.858l-.773-.983ZM4.375 20.43c0 2.124.303 3.55.827 4.501.545.991 1.305 1.421 2.06 1.59l.272-1.22c-.444-.1-.883-.33-1.237-.973-.376-.682-.672-1.863-.672-3.898h-1.25ZM14 4.375A9.625 9.625 0 0 0 4.375 14h1.25A8.375 8.375 0 0 1 14 5.625v-1.25Zm5 1.25c.508 0 .953.275 1.191.688l1.082-.626A2.624 2.624 0 0 0 19 4.375v1.25Zm1.191.688c.117.202.184.436.184.687h1.25c0-.477-.128-.926-.352-1.313l-1.082.626ZM20.375 9a9.377 9.377 0 0 1-5.625 8.595l.5 1.146A10.627 10.627 0 0 0 21.625 9h-1.25Zm-5.625 8.595a9.34 9.34 0 0 1-3.75.78v1.25c1.51 0 2.948-.315 4.25-.884l-.5-1.146ZM7.5 25.122c.009.027.012.06.007.097a.21.21 0 0 1-.03.084c-.011.018-.014.013.003.005a.107.107 0 0 1 .048-.01l.004.001h.002l-.272 1.22c.562.126 1.019-.162 1.26-.529.232-.352.31-.825.164-1.263l-1.186.395ZM10.375 19c0 .486-.225.913-.642 1.356-.432.46-.985.853-1.575 1.317l.773.983c.52-.41 1.196-.893 1.713-1.443.533-.567.981-1.286.981-2.213h-1.25Z"/><path stroke="#5289CD" stroke-linecap="round" stroke-width="2" d="M9.5 14.5h.1"/><path fill="#fff" d="M17.724 18.34v11.32c0 1.342 3.233 2.425 7.276 2.425 4.043 0 7.276-1.083 7.276-2.425V18.34"/><path stroke="#5289CD" stroke-width="1.25" d="M25 .625H5A4.375 4.375 0 0 0 .625 5v20A4.375 4.375 0 0 0 5 29.375h20A4.375 4.375 0 0 0 29.375 25V5A4.375 4.375 0 0 0 25 .625Z"/><path fill="#fff" d="M17.724 18.34c0-1.34 3.257-2.425 7.276-2.425s7.276 1.086 7.276 2.425v11.32c0 1.342-3.234 2.425-7.276 2.425-4.043 0-7.276-1.083-7.276-2.425V18.34Z"/><path stroke="#1152A3" stroke-linecap="round" stroke-linejoin="round" stroke-width="1.25" d="M32.276 18.34c0 1.34-3.257 2.426-7.276 2.426s-7.276-1.086-7.276-2.425m14.552 0c0-1.34-3.257-2.426-7.276-2.426s-7.276 1.086-7.276 2.425m14.552 0v11.32c0 1.342-3.234 2.425-7.276 2.425-4.043 0-7.276-1.083-7.276-2.425V18.34M32.276 24c0 1.342-3.234 2.425-7.276 2.425-4.043 0-7.276-1.083-7.276-2.425"/></svg>