<svg xmlns="http://www.w3.org/2000/svg" width="572" height="190" fill="none"><path fill="#000" d="M150.21 172.713v-2.844h-3.533c-3.034 0-4.401.936-4.401 2.611v.701c0 1.707 1.334 2.679 3.4 2.679 2.634 0 4.534-1.373 4.534-3.147Zm3.133 5.021c-1.966 0-2.766-1.205-2.966-2.812h-.167c-.734 2.109-2.567 3.213-4.967 3.213-3.634 0-5.767-2.008-5.767-5.221 0-3.246 2.333-5.054 7.333-5.054h3.401v-1.706c0-2.444-1.333-3.783-4.067-3.783-2.067 0-3.434 1.005-4.367 2.578l-1.6-1.506c.933-1.842 3-3.381 6.1-3.381 4.134 0 6.601 2.176 6.601 5.824v9.505h1.966v2.343h-1.5ZM158.811 177.734v-17.27h2.668v2.812h.133c.833-1.941 2.3-3.214 4.866-3.214 3.534 0 5.767 2.41 5.767 6.594v11.078h-2.666v-10.609c0-3.079-1.334-4.653-3.9-4.653-2.134 0-4.2 1.071-4.2 3.28v11.982h-2.668ZM183.781 177.73v-2.34h3.267v-18.676h-3.267v-2.342h9.334v2.342h-3.267v18.676h3.267v2.343l-9.334-.003ZM201.183 175.257h6.9c2.401 0 3.867-1.272 3.867-3.615v-1.138c0-2.343-1.466-3.614-3.867-3.614h-6.9v8.367Zm0-10.777h6.434c2.2 0 3.533-1.172 3.533-3.246v-1.139c0-2.075-1.333-3.246-3.533-3.246h-6.434v7.631Zm-2.801-10.107h9.567c3.834 0 6.201 2.375 6.201 6.023 0 3.482-2.233 4.72-3.767 4.953v.202c1.667.1 4.567 1.539 4.567 5.422 0 3.848-2.566 6.76-6 6.76h-10.568v-23.36ZM220.318 154.372h3.734l6.666 12.583h.168l6.7-12.583h3.6v23.361h-2.733v-19.68h-.168l-1.966 3.915-5.567 10.175-5.567-10.175-1.967-3.915h-.167v19.68h-2.733v-23.361ZM253.087 166.187c0-7.799 3.5-12.217 9.367-12.217 3.866 0 6.534 1.875 8 5.121l-2.267 1.373c-.933-2.41-2.866-3.983-5.733-3.983-4 0-6.367 3.18-6.367 7.965v3.481c0 4.786 2.367 7.698 6.367 7.698 2.966 0 5-1.674 5.934-4.217l2.233 1.406c-1.467 3.279-4.301 5.321-8.167 5.321-5.867 0-9.367-4.15-9.367-11.948ZM286.256 170.338v-2.477c0-3.648-2.033-5.422-4.899-5.422-2.867 0-4.9 1.774-4.9 5.422v2.477c0 3.647 2.033 5.422 4.9 5.422 2.866 0 4.899-1.775 4.899-5.422Zm-12.666-1.239c0-5.489 3.166-9.037 7.767-9.037 4.6 0 7.767 3.548 7.767 9.037 0 5.489-3.167 9.037-7.767 9.037-4.601 0-7.767-3.548-7.767-9.037ZM293.692 177.734v-17.27h2.667v2.812h.132c.768-1.775 1.968-3.214 4.634-3.214 2.267 0 4.334 1.038 5.267 3.515h.067c.634-1.874 2.3-3.515 5.234-3.515 3.499 0 5.599 2.41 5.599 6.594v11.078h-2.667v-10.609c0-3.045-1.166-4.653-3.766-4.653-2.1 0-4.033 1.071-4.033 3.28v11.982h-2.668v-10.609c0-3.079-1.166-4.653-3.7-4.653-2.1 0-4.099 1.071-4.099 3.28v11.982h-2.667ZM334.928 170.57v-2.945c0-3.078-1.867-5.154-4.867-5.154-2.433 0-4.433 1.406-4.433 3.313v6.427c0 2.242 2 3.514 4.433 3.514 3 0 4.867-2.075 4.867-5.155Zm-11.967-10.107h2.667v2.811h.132c.901-2.175 2.667-3.213 5.034-3.213 4.301 0 7.001 3.514 7.001 9.037 0 5.522-2.7 9.037-7.001 9.037-2.367 0-4-1.071-5.034-3.214h-.132v9.506h-2.667v-23.964ZM351.831 172.713v-2.844h-3.533c-3.034 0-4.4.936-4.4 2.611v.701c0 1.707 1.333 2.679 3.401 2.679 2.632 0 4.532-1.373 4.532-3.147Zm3.134 5.021c-1.967 0-2.768-1.205-2.967-2.812h-.167c-.733 2.109-2.566 3.213-4.967 3.213-3.633 0-5.767-2.008-5.767-5.221 0-3.246 2.334-5.054 7.335-5.054h3.399v-1.706c0-2.444-1.333-3.783-4.066-3.783-2.067 0-3.434 1.005-4.368 2.578l-1.599-1.506c.932-1.842 3-3.381 6.099-3.381 4.134 0 6.601 2.176 6.601 5.824v9.505h1.967v2.343h-1.5ZM360.433 177.734v-17.27h2.667v2.812h.133c.833-1.941 2.3-3.214 4.867-3.214 3.534 0 5.767 2.41 5.767 6.594v11.078h-2.666v-10.609c0-3.079-1.334-4.653-3.901-4.653-2.133 0-4.2 1.071-4.2 3.28v11.982h-2.667ZM389.868 160.464h2.633L384.8 181.75c-.766 2.076-1.466 2.679-4 2.679h-1.367v-2.343h2.7l1.301-3.682-6.434-17.94h2.667l4.133 11.748.801 2.811h.166l.934-2.811 4.167-11.748Z"/><path fill="#1A3560" d="M141.939 89.538c7.097 4.275 16.222 7.695 23.318 7.695 9.571 0 14.761-5.17 14.761-14.657 0-20.725-39.823-11.116-39.823-43.24 0-16.897 10.017-26.67 27.292-26.67 9.45 0 17.56 2.647 24.778 6.963l-4.419 10.667c-6.205-3.542-12.816-5.781-19.304-5.781-9.003 0-14.315 4.601-14.315 14.495 0 21.009 39.823 12.744 39.823 42.507 0 15.838-8.273 27.524-28.752 27.524-7.949 0-18.857-3.258-27.293-8.428l3.934-11.075Z"/><path fill="#1A3560" d="M141.939 89.538c7.097 4.275 16.222 7.695 23.318 7.695 9.571 0 14.761-5.17 14.761-14.657 0-20.725-39.826-11.116-39.826-43.24 0-16.897 10.02-26.67 27.295-26.67 9.45 0 17.56 2.647 24.778 6.963l-4.419 10.667c-6.205-3.542-12.816-5.781-19.304-5.781-9.003 0-14.315 4.601-14.315 14.495 0 21.009 39.823 12.744 39.823 42.507 0 15.838-8.273 27.524-28.752 27.524-7.949 0-18.857-3.258-27.293-8.428l3.934-11.075ZM210.07 47.804l-11.071-.61v-9.161h11.354l1.339-23.82h11.071v23.82h18.128l-1.785 9.771h-16.384v35.504c0 9.935 2.798 14.373 9.003 14.373 3.529 0 6.204-.895 9.57-2.647l2.515 10.22c-4.866 2.361-8.719 3.869-15.207 3.869-13.869 0-18.574-10.058-18.574-23.82V47.804h.041ZM290.73 66.167c-.608-12.01-4.258-18.648-12.085-18.648-7.948 0-13.139 6.514-14.153 18.648h26.238Zm-12.369-29.641c16.667 0 24.94 13.762 24.94 37.174l-.73 1.628h-38.2c.608 14.373 5.879 22.354 17.68 22.354 5.597 0 11.964-2.077 16.668-5.05l3.244 10.383c-6.326 3.868-12.977 6.067-21.25 6.067-20.357 0-29.806-14.944-29.806-36.115 0-22.964 10.625-36.441 27.454-36.441ZM342.069 97.681c8.395 0 15.208-8.428 15.208-25.04 0-16.45-5.759-24.715-12.369-24.715-7.665 0-12.369 6.352-14.883 14.658v29.763c3.041 3.583 7.3 5.334 12.044 5.334Zm-12.126 40.147-12.692-.001V38.033h10.747l.892 10.667c3.528-7.41 9.894-12.133 18.856-12.133 13.424 0 22.872 13.477 22.872 35.667 0 22.8-10.462 36.847-27.413 36.847-4.866 0-9.733-1.343-13.262-4.437v33.184ZM380.838 103.626l38.2-77.564H383.19l-.284-11.848h53.692v4.6l-38.201 76.994h39.215v11.849h-56.774v-4.031Z"/><path fill="#1A3560" d="m380.838 103.626 38.2-77.564H383.19l-.284-11.846 53.692-.002v4.6l-38.201 76.994h39.215v11.849h-56.774v-4.031Z"/><path fill="#1A3560" d="m380.838 103.626 38.2-77.564H383.19l-.284-11.846 53.692-.002v4.6L398.397 95.81h39.215v11.849l-56.774-.001v-4.031ZM487.615 66.167c-.608-12.01-4.258-18.648-12.084-18.648-7.949 0-13.14 6.514-14.154 18.648h26.238Zm-12.409-29.641c16.667 0 24.94 13.762 24.94 37.174l-.73 1.628h-38.201c.609 14.373 5.88 22.354 17.681 22.354 5.597 0 11.964-2.077 16.668-5.05l3.244 10.383c-6.326 3.868-12.977 6.067-21.25 6.067-20.358 0-29.807-14.944-29.807-36.115.041-22.964 10.666-36.441 27.455-36.441ZM514.136 38.033h10.747l.892 10.952c3.852-7.695 11.071-12.418 19.182-12.418 13.707 0 20.073 10.056 20.073 27.076v43.973h-12.693V65.719c0-12.296-3.69-17.752-10.463-17.752-7.218 0-12.247 6.962-15.045 14.659v44.99h-12.693V38.033Z"/><path fill="#00B1C9" d="M48.91 46.909c0-1.466.284-2.891.852-4.235a10.559 10.559 0 0 1 2.312-3.46c1.014-1.019 2.15-1.792 3.448-2.321a10.698 10.698 0 0 1 4.217-.856h4.339l10.017-10.056H59.779c-2.798 0-5.555.57-8.11 1.628a21.545 21.545 0 0 0-6.651 4.48 20.718 20.718 0 0 0-4.46 6.676c-1.096 2.606-1.623 5.334-1.623 8.144v14.373l10.016-10.058V46.91h-.04Z"/><path fill="#00B1C9" d="M116.837 4.36v5.375c0 .774-.202 1.588-.649 2.199-.608.896-1.135 1.425-1.743 2.036-1.379 1.384-2.757 2.646-4.136 4.03l-3.853 3.868a12306.143 12306.143 0 0 0-5.799 5.823L57.67 70.849l-36.173 36.36h41.284c4.217 0 8.272-.815 12.124-2.443a30.293 30.293 0 0 0 5.273-2.891c1.662-1.1 3.203-2.403 4.623-3.828a32.222 32.222 0 0 0 3.811-4.64 30.417 30.417 0 0 0 2.88-5.294c1.622-3.868 2.433-7.94 2.433-12.174V48.74l10.016-10.057V75.98c0 2.81-.283 5.58-.851 8.306a41.07 41.07 0 0 1-2.392 7.778 39.113 39.113 0 0 1-3.813 7.003c-1.46 2.198-3.163 4.234-5.028 6.107-1.866 1.873-3.894 3.583-6.083 5.049-2.19 1.506-4.543 2.768-6.975 3.827a38.842 38.842 0 0 1-7.746 2.402c-2.717.57-5.515.855-8.272.855H4.343v-5.375c0-.651.162-1.302.446-1.872.406-.773 1.055-1.589 1.704-2.198 4.055-4.032 1.419-1.385 2.108-2.077 1.338-1.344 0 .041 4.015-3.909l3.771-3.787 3.488-3.501 3.244-3.257 3-3.014 2.799-2.809 2.555-2.564 6.448-6.475 1.784-1.79a2953.72 2953.72 0 0 0 3-3.014l1.299-1.303 1.136-1.14.972-.978c.285-.284.568-.57.853-.855l.73-.732.649-.652.526-.53a208.94 208.94 0 0 0 .812-.813c.08-.082.202-.204.283-.285l.203-.204.163-.163.932-.936 48.46-48.614H58.442c-4.218 0-8.273.814-12.125 2.442a30.249 30.249 0 0 0-5.272 2.89c-1.663 1.1-3.204 2.403-4.624 3.828a32.106 32.106 0 0 0-3.811 4.642 30.425 30.425 0 0 0-2.88 5.293c-1.622 3.868-2.433 7.94-2.433 12.174v27.198L17.28 82.983V45.728c0-2.81.283-5.619.851-8.306a41.003 41.003 0 0 1 2.392-7.776 39.075 39.075 0 0 1 3.813-7.004c1.46-2.199 3.163-4.235 5.028-6.107 1.866-1.873 3.894-3.584 6.083-5.05 2.19-1.506 4.543-2.768 6.975-3.826a38.85 38.85 0 0 1 7.746-2.403 40.46 40.46 0 0 1 8.273-.855h58.396v-.04Z"/><path fill="#00B1C9" d="M72.27 74.758c0 1.466-.284 2.89-.852 4.234a10.556 10.556 0 0 1-2.312 3.461c-1.013 1.019-2.15 1.792-3.447 2.32-1.338.571-2.758.857-4.218.857h-4.298L47.127 95.686h14.314c2.799 0 5.556-.57 8.111-1.629a21.545 21.545 0 0 0 6.651-4.478 20.72 20.72 0 0 0 4.46-6.677 20.841 20.841 0 0 0 1.624-8.144V60.385L72.269 70.442v4.316Z"/></svg>